<?xml version="1.0" encoding="utf-8"?>
<!-- Generator: Adobe Illustrator 21.1.0, SVG Export Plug-In . SVG Version: 6.00 Build 0)  -->
<svg version="1.1" id="Layer_1" xmlns="http://www.w3.org/2000/svg" xmlns:xlink="http://www.w3.org/1999/xlink" x="0px" y="0px"
	 viewBox="0 0 51.3 55" style="enable-background:new 0 0 51.3 55;" xml:space="preserve">
<style type="text/css">
	.st0{fill:#2B2B2B;}
</style>
<path class="st0" d="M42.9,7.7C37.2,2.5,30.3,0,21.9,0h-9.8C7.8,0,4.7,0.9,2.9,2.6S0,7.3,0,11.4v32.1c0,4.3,0.9,7.2,2.8,8.9
	C4.6,54.2,7.7,55,12,55h7.7c9.2,0,16.5-2.3,22.3-7c6.2-5,9.3-12,9.3-20.8C51.4,19.4,48.5,12.9,42.9,7.7z M15.8,39.8V16.1L36.3,28
	L15.8,39.8z"/>
</svg>
